# Blender 5.0.1
# www.blender.org
mtllib Wall_Base.mtl
o Cube
v -0.824333 -1.000000 -0.075667
v -0.824333 -0.824333 0.100000
v -1.000000 -0.824333 -0.075667
v -0.824333 0.824333 0.100000
v -0.824333 1.000000 -0.075667
v -1.000000 0.824333 -0.075667
v -0.824333 -1.000000 0.075667
v -1.000000 -0.824333 0.075667
v -0.824333 -0.824333 -0.100000
v -0.824333 1.000000 0.075667
v -0.824333 0.824333 -0.100000
v -1.000000 0.824333 0.075667
v 0.824333 -1.000000 -0.075667
v 1.000000 -0.824333 -0.075667
v 0.824333 -0.824333 0.100000
v 0.824333 1.000000 -0.075667
v 0.824333 0.824333 0.100000
v 1.000000 0.824333 -0.075667
v 0.824333 -1.000000 0.075667
v 0.824333 -0.824333 -0.100000
v 1.000000 -0.824333 0.075667
v 0.824333 1.000000 0.075667
v 1.000000 0.824333 0.075667
v 0.824333 0.824333 -0.100000
v 0.003192 -1.000000 0.075667
v 0.003192 -0.824333 -0.100000
v 0.003192 1.000000 0.075667
v 0.003192 0.824333 -0.100000
v 0.003192 -1.000000 -0.075667
v 0.003192 -0.824333 0.100000
v 0.003192 1.000000 -0.075667
v 0.003192 0.824333 0.100000
v -0.824333 0.020082 0.100000
v -1.000000 0.020082 -0.075667
v -0.824333 0.020082 -0.100000
v -1.000000 0.020082 0.075667
v 1.000000 0.020082 0.075667
v 0.824333 0.020082 -0.100000
v 0.824333 0.020082 0.100000
v 1.000000 0.020082 -0.075667
v 0.003192 0.020082 -0.100000
v 0.003192 0.020082 0.100000
v -0.824333 0.451228 0.100000
v -1.000000 0.451228 0.075667
v 0.824333 0.451228 -0.100000
v 1.000000 0.451228 -0.075667
v -1.000000 0.451228 -0.075667
v -0.824333 0.451228 -0.100000
v 1.000000 0.451228 0.075667
v 0.824333 0.451228 0.100000
v 0.003192 0.451228 -0.100000
v 0.003192 0.451228 0.100000
v -1.000000 -0.402126 -0.075667
v -0.824333 -0.402126 -0.100000
v 1.000000 -0.402126 0.075667
v 0.824333 -0.402126 0.100000
v 0.003192 -0.402126 -0.100000
v 0.003192 -0.402126 0.100000
v -0.824333 -0.402126 0.100000
v -1.000000 -0.402126 0.075667
v 0.824333 -0.402126 -0.100000
v 1.000000 -0.402126 -0.075667
v -0.410570 -1.000000 0.075667
v -0.410570 0.824333 -0.100000
v -0.410570 -0.824333 0.100000
v -0.410570 1.000000 -0.075667
v -0.410570 -0.824333 -0.100000
v -0.410570 1.000000 0.075667
v -0.410570 -1.000000 -0.075667
v -0.410570 0.824333 0.100000
v -0.410570 0.020082 -0.100000
v -0.410570 0.020082 0.100000
v -0.410570 0.451228 -0.100000
v -0.410570 0.451228 0.100000
v -0.410570 -0.402126 0.100000
v -0.410570 -0.402126 -0.100000
v -1.000000 0.235655 -0.075667
v -0.824333 0.235655 -0.100000
v 1.000000 0.235655 0.075667
v 0.824333 0.235655 0.100000
v 0.003192 0.235655 -0.100000
v 0.003192 0.235655 0.100000
v -0.824333 0.235655 0.100000
v -1.000000 0.235655 0.075667
v 0.824333 0.235655 -0.100000
v 1.000000 0.235655 -0.075667
v -0.410570 0.235655 0.100000
v -0.410570 0.235655 -0.100000
v -0.824333 -0.191022 0.100000
v -1.000000 -0.191022 0.075667
v 0.824333 -0.191022 -0.100000
v 1.000000 -0.191022 -0.075667
v -1.000000 -0.191022 -0.075667
v -0.824333 -0.191022 -0.100000
v 1.000000 -0.191022 0.075667
v 0.824333 -0.191022 0.100000
v 0.003192 -0.191022 -0.100000
v 0.003192 -0.191022 0.100000
v -0.410570 -0.191022 0.100000
v -0.410570 -0.191022 -0.100000
v -0.824333 0.637781 0.100000
v -1.000000 0.637781 0.075667
v 0.824333 0.637781 -0.100000
v 1.000000 0.637781 -0.075667
v -1.000000 0.637781 -0.075667
v -0.824333 0.637781 -0.100000
v 1.000000 0.637781 0.075667
v 0.824333 0.637781 0.100000
v 0.003192 0.637781 -0.100000
v 0.003192 0.637781 0.100000
v -0.410570 0.637781 -0.100000
v -0.410570 0.637781 0.100000
v -1.000000 -0.613229 -0.075667
v -0.824333 -0.613229 -0.100000
v 1.000000 -0.613229 0.075667
v 0.824333 -0.613229 0.100000
v 0.003192 -0.613229 -0.100000
v 0.003192 -0.613229 0.100000
v -0.824333 -0.613229 0.100000
v -1.000000 -0.613229 0.075667
v 0.824333 -0.613229 -0.100000
v 1.000000 -0.613229 -0.075667
v -0.410570 -0.613229 -0.100000
v -0.410570 -0.613229 0.100000
v 0.413762 -0.824333 -0.100000
v 0.413762 1.000000 0.075667
v 0.413762 -1.000000 -0.075667
v 0.413762 0.824333 0.100000
v 0.413762 -1.000000 0.075667
v 0.413762 0.824333 -0.100000
v 0.413762 -0.824333 0.100000
v 0.413762 1.000000 -0.075667
v 0.413762 0.020082 0.100000
v 0.413762 0.020082 -0.100000
v 0.413762 0.451228 0.100000
v 0.413762 0.451228 -0.100000
v 0.413762 -0.402126 -0.100000
v 0.413762 -0.402126 0.100000
v 0.413762 0.235655 -0.100000
v 0.413762 0.235655 0.100000
v 0.413762 -0.191022 -0.100000
v 0.413762 -0.191022 0.100000
v 0.413762 0.637781 0.100000
v 0.413762 0.637781 -0.100000
v 0.413762 -0.613229 0.100000
v 0.413762 -0.613229 -0.100000
vn -0.5774 -0.5774 0.5774
vn -0.5774 0.5774 0.5774
vn -0.5774 -0.5774 -0.5774
vn -0.5774 0.5774 -0.5774
vn 0.5774 -0.5774 0.5774
vn 0.5774 0.5774 0.5774
vn 0.5774 -0.5774 -0.5774
vn 0.5774 0.5774 -0.5774
vn 0.7071 0.7071 -0.0000
vn -0.7071 -0.0000 0.7071
vn 0.7071 -0.7071 -0.0000
vn -0.7071 -0.0000 -0.7071
vn -0.0000 -0.7071 -0.7071
vn -0.0000 0.7071 -0.7071
vn 0.7071 -0.0000 -0.7071
vn -0.7071 0.7071 -0.0000
vn -0.7071 -0.7071 -0.0000
vn 0.7071 -0.0000 0.7071
vn -0.0000 -0.7071 0.7071
vn -0.0000 0.7071 0.7071
vn -0.0000 1.0000 -0.0000
vn 1.0000 -0.0000 -0.0000
vn -0.0000 -0.0000 1.0000
vn -0.0000 -1.0000 -0.0000
vn -0.0000 -0.0000 -1.0000
vn -1.0000 -0.0000 -0.0000
vt 0.843283 0.048146
vt 0.775195 0.048146
vt 0.809239 -0.000000
vt 0.068088 0.048146
vt 0.000000 0.048146
vt 0.034044 0.000000
vt 0.775195 0.500000
vt 0.741151 0.548146
vt 0.707107 0.500000
vt 0.843283 0.500000
vt 0.911371 0.500000
vt 0.877327 0.548146
vt 0.843283 0.500000
vt 0.809239 0.548146
vt 0.775195 0.500000
vt -0.000000 0.500000
vt 0.068088 0.500000
vt 0.034044 0.548146
vt 0.775195 0.048146
vt 0.707107 0.048146
vt 0.741151 -0.000000
vt 0.843283 0.048146
vt 0.877327 0.000000
vt 0.911371 0.048146
vt 0.911371 0.548146
vt 0.952848 0.500000
vt 0.952848 0.548146
vt 0.000000 0.548146
vt 0.048146 0.599274
vt 0.000000 0.599274
vt 0.952848 0.000000
vt 0.911371 0.048146
vt 0.911371 0.000000
vt 0.096291 1.000000
vt 0.048146 0.942142
vt 0.096291 0.942142
vt 0.707107 0.386599
vt 0.775195 0.386599
vt 0.911371 0.160672
vt 0.843283 0.160672
vt 0.144437 1.000000
vt 0.096291 0.942142
vt 0.144437 0.942142
vt 0.994324 0.500000
vt 0.994324 0.548146
vt 0.994324 0.000000
vt 0.952848 0.048146
vt 0.952848 0.000000
vt 0.192582 1.000000
vt 0.192582 0.942142
vt 0.775195 0.387474
vt 0.843283 0.387474
vt 0.068088 0.161547
vt 0.000000 0.161547
vt 0.221911 0.887474
vt 0.192582 1.000000
vt 0.192582 0.887474
vt 0.952848 0.099275
vt 0.911371 0.099275
vt 0.104242 0.048146
vt 0.104242 0.161547
vt 0.251239 1.000000
vt 0.221911 0.886599
vt 0.251239 0.886599
vt 0.387597 0.160672
vt 0.423751 0.048146
vt 0.423751 0.160672
vt 0.994324 0.099275
vt 0.387597 0.386599
vt 0.423751 0.273198
vt 0.423751 0.386599
vt 0.251239 0.773198
vt 0.221911 0.660672
vt 0.251239 0.660672
vt 0.068088 0.387474
vt 0.104242 0.274948
vt 0.104242 0.387474
vt 0.221911 0.774948
vt 0.192582 0.661547
vt 0.221911 0.661547
vt -0.000000 0.274948
vt -0.000000 0.387474
vt 0.843283 0.274948
vt 0.775195 0.161547
vt 0.843283 0.161547
vt 0.843283 0.273198
vt 0.911371 0.386599
vt 0.843283 0.386599
vt 0.775195 0.273198
vt 0.707107 0.160672
vt 0.775195 0.160672
vt 0.223951 0.387474
vt 0.264863 0.274948
vt 0.264863 0.387474
vt 0.543460 0.386599
vt 0.584372 0.273198
vt 0.584372 0.386599
vt 0.952848 0.326427
vt 0.994324 0.268569
vt 0.994324 0.326427
vt 0.543460 0.160672
vt 0.584372 0.048146
vt 0.584372 0.160672
vt 0.223951 0.161547
vt 0.264863 0.048146
vt 0.264863 0.161547
vt 0.911371 0.326427
vt 0.952848 0.268569
vt 0.192582 0.768569
vt 0.144437 0.709486
vt 0.192582 0.709486
vt 0.144437 0.768569
vt 0.096291 0.709486
vt 0.096291 0.768569
vt 0.048146 0.709486
vt 0.096291 0.709486
vt 0.000000 0.768569
vt 0.048146 0.826427
vt 0.000000 0.826427
vt 0.096291 0.650403
vt 0.096291 0.599274
vt 0.144437 0.650403
vt 0.096291 0.599274
vt 0.144437 0.599274
vt 0.192582 0.650403
vt 0.192582 0.599274
vt 0.140395 0.387474
vt 0.182173 0.274948
vt 0.182173 0.387474
vt 0.459905 0.386599
vt 0.501682 0.273198
vt 0.501682 0.386599
vt 0.952848 0.150403
vt 0.994324 0.209486
vt 0.952848 0.209486
vt 0.459905 0.160672
vt 0.501683 0.048146
vt 0.501683 0.160672
vt 0.140395 0.161547
vt 0.182173 0.048146
vt 0.182173 0.161547
vt 0.911371 0.150403
vt 0.911371 0.209486
vt 0.000000 0.650403
vt 0.000000 0.709486
vt 0.000000 0.884284
vt 0.000000 0.942142
vt 0.911371 0.384284
vt 0.952848 0.442142
vt 0.911371 0.442142
vt 0.305774 0.161547
vt 0.346686 0.048146
vt 0.346686 0.161547
vt 0.625284 0.160672
vt 0.666195 0.048146
vt 0.666195 0.160672
vt 0.952848 0.384284
vt 0.994324 0.442142
vt 0.625283 0.386599
vt 0.666195 0.273198
vt 0.666195 0.386599
vt 0.305774 0.387474
vt 0.346686 0.274948
vt 0.346686 0.387474
vt 0.192582 0.884284
vt 0.144437 0.826427
vt 0.192582 0.826427
vt 0.144437 0.884284
vt 0.096291 0.826427
vt 0.096291 0.884284
vt 0.096291 0.826427
vt 0.625283 0.500000
vt 0.666195 0.500000
vt 0.305774 0.274948
vt 0.140395 0.274948
vt 0.459905 0.500000
vt 0.501682 0.500000
vt 0.223951 0.274948
vt 0.543460 0.500000
vt 0.584372 0.500000
vt 0.192582 0.548146
vt 0.221911 0.548146
vt 0.387597 0.500000
vt 0.423751 0.500000
vt 0.221911 0.773198
vt 0.068088 0.274948
vt 0.707107 0.273198
vt 0.048146 0.768569
vt 0.911371 0.268569
vt 0.223951 0.048146
vt 0.543460 0.048146
vt 0.543460 0.273198
vt 0.048146 0.650403
vt 0.096291 0.650403
vt 0.096291 0.768569
vt 0.048146 0.884284
vt 0.305774 0.048146
vt 0.625284 0.048146
vt 0.994324 0.384284
vt 0.625284 0.273198
vt 0.144437 0.548146
vt 0.192582 0.548146
vt 0.096291 0.548146
vt 0.144437 0.548146
vt 0.048146 0.548146
vt 0.096291 0.548146
vt 0.459905 0.273198
vt 0.994324 0.150403
vt 0.459905 0.048146
vt 0.140395 0.048146
vt 0.387597 0.161547
vt 0.387597 0.274948
vt 0.387597 0.387474
vt 0.952848 0.500000
vt 0.387597 0.048146
vt 0.911371 0.500000
vt 0.048146 1.000000
vt 0.000000 1.000000
vt 0.096291 0.884284
vt 0.346686 0.500000
vt 0.387597 0.500000
vt 0.104242 0.500000
vt 0.140395 0.500000
vt 0.264863 0.500000
vt 0.305774 0.500000
vt 0.182173 0.500000
vt 0.223951 0.500000
vt 0.251239 0.548146
vt 0.221911 0.548146
vt 0.387597 0.273198
vt 0.192582 0.774948
vt 0.775195 0.274948
vt 0.911371 0.273198
vt 0.048146 0.548146
vt 0.048146 1.000000
vt 0.096291 1.000000
vt 0.994324 0.048146
vt 0.221911 1.000000
vt 0.221911 1.000000
vt 0.387597 0.048146
s 0
usemtl Wall_Base
f 1/1/1 2/2/1 3/3/1
f 4/4/2 5/5/2 6/6/2
f 7/7/3 8/8/3 9/9/3
f 10/10/4 11/11/4 12/12/4
f 13/13/5 14/14/5 15/15/5
f 16/16/6 17/17/6 18/18/6
f 19/19/7 20/20/7 21/21/7
f 22/22/8 23/23/8 24/24/8
f 1/25/9 8/26/9 7/27/9
f 4/28/10 105/29/10 101/30/10
f 10/31/11 6/32/11 5/33/11
f 9/34/12 120/35/12 114/36/12
f 7/7/13 67/37/13 63/38/13
f 22/22/14 130/39/14 126/40/14
f 21/41/15 121/42/15 115/43/15
f 19/27/16 14/44/16 13/45/16
f 16/46/17 23/47/17 22/48/17
f 15/49/18 122/43/18 116/50/18
f 13/13/19 131/51/19 127/52/19
f 5/5/20 70/53/20 66/54/20
f 129/55/21 13/56/21 127/57/21
f 6/32/22 102/58/22 105/59/22
f 70/53/23 101/60/23 112/61/23
f 10/62/24 66/63/24 68/64/24
f 130/65/25 103/66/25 144/67/25
f 23/47/26 104/68/26 107/58/26
f 64/69/25 109/70/25 111/71/25
f 27/72/24 132/73/24 126/74/24
f 128/75/23 110/76/23 143/77/23
f 25/78/21 69/79/21 63/80/21
f 31/81/20 128/75/20 132/82/20
f 29/83/19 65/84/19 69/85/19
f 27/86/14 64/87/14 68/88/14
f 25/89/13 125/90/13 129/91/13
f 133/92/23 98/93/23 142/94/23
f 71/95/25 97/96/25 100/97/25
f 95/98/26 40/99/26 92/100/26
f 134/101/25 91/102/25 141/103/25
f 72/104/23 89/105/23 99/106/23
f 93/107/22 36/108/22 90/98/22
f 39/109/18 86/110/18 80/111/18
f 37/112/15 85/113/15 79/110/15
f 35/114/12 84/115/12 78/116/12
f 33/117/10 93/118/10 89/119/10
f 48/120/12 102/29/12 106/121/12
f 49/122/15 103/123/15 107/124/15
f 50/125/18 104/124/18 108/126/18
f 135/127/23 82/128/23 140/129/23
f 73/130/25 81/131/25 88/132/25
f 49/133/26 86/134/26 79/135/26
f 136/136/25 85/137/25 139/138/25
f 74/139/23 83/140/23 87/141/23
f 47/142/22 84/135/22 77/143/22
f 43/144/10 77/115/10 83/145/10
f 59/146/10 113/35/10 119/147/10
f 53/148/22 120/149/22 113/150/22
f 75/151/23 119/152/23 124/153/23
f 137/154/25 121/155/25 146/156/25
f 55/157/26 122/158/26 115/149/26
f 76/159/25 117/160/25 123/161/25
f 138/162/23 118/163/23 145/164/23
f 56/165/18 92/166/18 96/167/18
f 55/168/15 91/169/15 95/166/15
f 54/170/12 90/118/12 94/171/12
f 54/172/25 123/161/25 114/173/25
f 58/174/23 124/153/23 118/163/23
f 52/175/23 87/141/23 82/128/23
f 48/176/25 88/132/25 78/177/25
f 42/178/23 99/106/23 98/93/23
f 35/179/25 100/97/25 94/180/25
f 68/88/14 11/11/14 10/10/14
f 69/85/19 2/2/19 1/1/19
f 63/80/21 1/181/21 7/182/21
f 11/183/25 111/71/25 106/184/25
f 68/64/24 31/185/24 27/72/24
f 32/186/23 112/61/23 110/76/23
f 66/54/20 32/186/20 31/81/20
f 63/38/13 26/187/13 25/89/13
f 78/177/25 71/95/25 35/179/25
f 82/128/23 72/104/23 42/178/23
f 83/145/10 34/188/10 33/117/10
f 77/143/22 36/108/22 34/189/22
f 87/141/23 33/190/23 72/104/23
f 139/138/25 38/191/25 134/101/25
f 79/135/26 40/99/26 37/108/26
f 88/132/25 41/192/25 71/95/25
f 140/129/23 42/178/23 133/92/23
f 78/116/12 44/193/12 48/120/12
f 79/110/15 45/194/15 49/122/15
f 80/111/18 46/122/18 50/125/18
f 94/180/25 76/159/25 54/172/25
f 98/93/23 75/151/23 58/174/23
f 94/171/12 36/188/12 35/114/12
f 95/166/15 38/195/15 37/112/15
f 96/167/18 40/112/18 39/109/18
f 89/119/10 53/196/10 59/146/10
f 93/107/22 60/157/22 53/148/22
f 99/106/23 59/197/23 75/151/23
f 141/103/25 61/198/25 137/154/25
f 95/98/26 62/199/26 55/157/26
f 100/97/25 57/200/25 76/159/25
f 142/94/23 58/174/23 138/162/23
f 110/76/23 74/139/23 52/175/23
f 106/184/25 73/130/25 48/176/25
f 108/126/18 18/201/18 17/202/18
f 107/124/15 24/203/15 23/204/15
f 106/121/12 12/205/12 11/206/12
f 143/77/23 52/175/23 135/127/23
f 111/71/25 51/207/25 73/130/25
f 107/58/26 46/208/26 49/133/26
f 144/67/25 45/209/25 136/136/25
f 112/61/23 43/210/23 74/139/23
f 105/59/22 44/133/22 47/142/22
f 101/30/10 47/193/10 43/144/10
f 118/163/23 65/211/23 30/212/23
f 114/173/25 67/37/25 9/9/25
f 145/164/23 30/212/23 131/213/23
f 123/161/25 26/187/25 67/37/25
f 115/149/26 14/44/26 21/214/26
f 146/156/25 20/20/25 125/90/25
f 124/153/23 2/215/23 65/211/23
f 113/150/22 8/26/22 3/216/22
f 119/147/10 3/217/10 2/218/10
f 116/50/18 62/168/18 56/165/18
f 115/43/15 61/219/15 55/168/15
f 114/36/12 60/196/12 54/170/12
f 117/160/25 125/90/25 26/187/25
f 116/220/23 131/213/23 15/221/23
f 109/70/25 136/136/25 51/207/25
f 108/222/23 135/127/23 50/223/23
f 96/224/23 138/162/23 56/225/23
f 97/96/25 137/154/25 57/200/25
f 80/226/23 133/92/23 39/227/23
f 81/131/25 134/101/25 41/192/25
f 56/225/23 145/164/23 116/220/23
f 57/200/25 146/156/25 117/160/25
f 51/207/25 139/138/25 81/131/25
f 50/223/23 140/129/23 80/226/23
f 41/192/25 141/103/25 97/96/25
f 39/227/23 142/94/23 96/224/23
f 129/91/13 20/20/13 19/19/13
f 132/82/20 17/17/20 16/16/20
f 17/17/23 143/77/23 108/222/23
f 22/228/24 132/73/24 16/229/24
f 28/230/25 144/67/25 109/70/25
f 129/55/21 29/231/21 25/78/21
f 127/52/19 30/232/19 29/83/19
f 126/40/14 28/233/14 27/86/14
f 1/25/9 3/216/9 8/26/9
f 4/28/10 6/234/10 105/29/10
f 10/31/11 12/47/11 6/32/11
f 9/34/12 8/235/12 120/35/12
f 7/7/13 9/9/13 67/37/13
f 22/22/14 24/24/14 130/39/14
f 21/41/15 20/236/15 121/42/15
f 19/27/16 21/214/16 14/44/16
f 16/46/17 18/237/17 23/47/17
f 15/49/18 14/41/18 122/43/18
f 13/13/19 15/15/19 131/51/19
f 5/5/20 4/4/20 70/53/20
f 129/55/21 19/238/21 13/56/21
f 6/32/22 12/47/22 102/58/22
f 70/53/23 4/4/23 101/60/23
f 10/62/24 5/239/24 66/63/24
f 130/65/25 24/240/25 103/66/25
f 23/47/26 18/237/26 104/68/26
f 64/69/25 28/230/25 109/70/25
f 27/72/24 31/185/24 132/73/24
f 128/75/23 32/186/23 110/76/23
f 25/78/21 29/231/21 69/79/21
f 31/81/20 32/186/20 128/75/20
f 29/83/19 30/232/19 65/84/19
f 27/86/14 28/233/14 64/87/14
f 25/89/13 26/187/13 125/90/13
f 133/92/23 42/178/23 98/93/23
f 71/95/25 41/192/25 97/96/25
f 95/98/26 37/108/26 40/99/26
f 134/101/25 38/191/25 91/102/25
f 72/104/23 33/190/23 89/105/23
f 93/107/22 34/189/22 36/108/22
f 39/109/18 40/112/18 86/110/18
f 37/112/15 38/195/15 85/113/15
f 35/114/12 36/188/12 84/115/12
f 33/117/10 34/188/10 93/118/10
f 48/120/12 44/193/12 102/29/12
f 49/122/15 45/194/15 103/123/15
f 50/125/18 46/122/18 104/124/18
f 135/127/23 52/175/23 82/128/23
f 73/130/25 51/207/25 81/131/25
f 49/133/26 46/208/26 86/134/26
f 136/136/25 45/209/25 85/137/25
f 74/139/23 43/210/23 83/140/23
f 47/142/22 44/133/22 84/135/22
f 43/144/10 47/193/10 77/115/10
f 59/146/10 53/196/10 113/35/10
f 53/148/22 60/157/22 120/149/22
f 75/151/23 59/197/23 119/152/23
f 137/154/25 61/198/25 121/155/25
f 55/157/26 62/199/26 122/158/26
f 76/159/25 57/200/25 117/160/25
f 138/162/23 58/174/23 118/163/23
f 56/165/18 62/168/18 92/166/18
f 55/168/15 61/219/15 91/169/15
f 54/170/12 60/196/12 90/118/12
f 54/172/25 76/159/25 123/161/25
f 58/174/23 75/151/23 124/153/23
f 52/175/23 74/139/23 87/141/23
f 48/176/25 73/130/25 88/132/25
f 42/178/23 72/104/23 99/106/23
f 35/179/25 71/95/25 100/97/25
f 68/88/14 64/87/14 11/11/14
f 69/85/19 65/84/19 2/2/19
f 63/80/21 69/79/21 1/181/21
f 11/183/25 64/69/25 111/71/25
f 68/64/24 66/63/24 31/185/24
f 32/186/23 70/53/23 112/61/23
f 66/54/20 70/53/20 32/186/20
f 63/38/13 67/37/13 26/187/13
f 78/177/25 88/132/25 71/95/25
f 82/128/23 87/141/23 72/104/23
f 83/145/10 77/115/10 34/188/10
f 77/143/22 84/135/22 36/108/22
f 87/141/23 83/140/23 33/190/23
f 139/138/25 85/137/25 38/191/25
f 79/135/26 86/134/26 40/99/26
f 88/132/25 81/131/25 41/192/25
f 140/129/23 82/128/23 42/178/23
f 78/116/12 84/115/12 44/193/12
f 79/110/15 85/113/15 45/194/15
f 80/111/18 86/110/18 46/122/18
f 94/180/25 100/97/25 76/159/25
f 98/93/23 99/106/23 75/151/23
f 94/171/12 90/118/12 36/188/12
f 95/166/15 91/169/15 38/195/15
f 96/167/18 92/166/18 40/112/18
f 89/119/10 93/118/10 53/196/10
f 93/107/22 90/98/22 60/157/22
f 99/106/23 89/105/23 59/197/23
f 141/103/25 91/102/25 61/198/25
f 95/98/26 92/100/26 62/199/26
f 100/97/25 97/96/25 57/200/25
f 142/94/23 98/93/23 58/174/23
f 110/76/23 112/61/23 74/139/23
f 106/184/25 111/71/25 73/130/25
f 108/126/18 104/124/18 18/201/18
f 107/124/15 103/123/15 24/203/15
f 106/121/12 102/29/12 12/205/12
f 143/77/23 110/76/23 52/175/23
f 111/71/25 109/70/25 51/207/25
f 107/58/26 104/68/26 46/208/26
f 144/67/25 103/66/25 45/209/25
f 112/61/23 101/60/23 43/210/23
f 105/59/22 102/58/22 44/133/22
f 101/30/10 105/29/10 47/193/10
f 118/163/23 124/153/23 65/211/23
f 114/173/25 123/161/25 67/37/25
f 145/164/23 118/163/23 30/212/23
f 123/161/25 117/160/25 26/187/25
f 115/149/26 122/158/26 14/44/26
f 146/156/25 121/155/25 20/20/25
f 124/153/23 119/152/23 2/215/23
f 113/150/22 120/149/22 8/26/22
f 119/147/10 113/35/10 3/217/10
f 116/50/18 122/43/18 62/168/18
f 115/43/15 121/42/15 61/219/15
f 114/36/12 120/35/12 60/196/12
f 117/160/25 146/156/25 125/90/25
f 116/220/23 145/164/23 131/213/23
f 109/70/25 144/67/25 136/136/25
f 108/222/23 143/77/23 135/127/23
f 96/224/23 142/94/23 138/162/23
f 97/96/25 141/103/25 137/154/25
f 80/226/23 140/129/23 133/92/23
f 81/131/25 139/138/25 134/101/25
f 56/225/23 138/162/23 145/164/23
f 57/200/25 137/154/25 146/156/25
f 51/207/25 136/136/25 139/138/25
f 50/223/23 135/127/23 140/129/23
f 41/192/25 134/101/25 141/103/25
f 39/227/23 133/92/23 142/94/23
f 129/91/13 125/90/13 20/20/13
f 132/82/20 128/75/20 17/17/20
f 17/17/23 128/75/23 143/77/23
f 22/228/24 126/74/24 132/73/24
f 28/230/25 130/65/25 144/67/25
f 129/55/21 127/57/21 29/231/21
f 127/52/19 131/51/19 30/232/19
f 126/40/14 130/39/14 28/233/14
